<?xml version="1.0" encoding="UTF-8"?>
<svg id="OBJECTS" xmlns="http://www.w3.org/2000/svg" viewBox="0 0 500 500">
  <defs>
    <style>
      .cls-1 {
        fill: #b7ac15;
      }

      .cls-1, .cls-2, .cls-3, .cls-4, .cls-5, .cls-6, .cls-7, .cls-8, .cls-9, .cls-10, .cls-11, .cls-12, .cls-13, .cls-14, .cls-15, .cls-16, .cls-17, .cls-18, .cls-19, .cls-20, .cls-21, .cls-22, .cls-23, .cls-24, .cls-25, .cls-26, .cls-27, .cls-28, .cls-29, .cls-30 {
        stroke-width: 0px;
      }

      .cls-2 {
        fill: #fff;
      }

      .cls-2, .cls-7 {
        opacity: .54;
      }

      .cls-3 {
        fill: #31344c;
      }

      .cls-4 {
        fill: #f27c49;
      }

      .cls-5, .cls-21 {
        fill: #383952;
      }

      .cls-31 {
        stroke: #191918;
        stroke-width: 2px;
      }

      .cls-31, .cls-32, .cls-33 {
        fill: none;
        stroke-miterlimit: 10;
      }

      .cls-6 {
        fill: #aab2c8;
      }

      .cls-7 {
        fill: #232433;
      }

      .cls-8 {
        fill: #ffe5e2;
      }

      .cls-9 {
        fill: #e0e7ff;
      }

      .cls-10 {
        fill: #3b364d;
      }

      .cls-11, .cls-21 {
        opacity: .36;
      }

      .cls-11, .cls-23 {
        fill: #426313;
      }

      .cls-12 {
        fill: #61648a;
      }

      .cls-13 {
        fill: #c3c9f4;
      }

      .cls-32 {
        stroke: #e56a85;
        stroke-linecap: round;
      }

      .cls-14 {
        fill: #edf1fc;
      }

      .cls-15 {
        fill: #d35473;
      }

      .cls-16 {
        fill: #965363;
      }

      .cls-17 {
        fill: #a88f14;
      }

      .cls-18 {
        fill: #af2f48;
      }

      .cls-19 {
        fill: #6d3744;
      }

      .cls-20 {
        fill: #7c9e1e;
      }

      .cls-22 {
        fill: #773c4d;
      }

      .cls-33 {
        stroke: #aab2c8;
      }

      .cls-24 {
        fill: #f4b8ab;
      }

      .cls-25 {
        fill: #542633;
      }

      .cls-26 {
        fill: #dd6595;
        opacity: .53;
      }

      .cls-27 {
        fill: #3a3852;
      }

      .cls-28 {
        fill: #ffc55a;
      }

      .cls-29 {
        fill: #fff8f8;
      }

      .cls-30 {
        fill: #f49947;
      }
    </style>
  </defs>
  <path class="cls-29" d="M456.3,415.76c61.95-63.35,35.13-161.63-84.89-184.06S225.5,74.96,116.34,102.97C7.19,130.99-34.25,337.27,77.76,415.76h378.54Z"/>
  <rect class="cls-10" x="448.67" y="208.36" width="7.63" height="191.15" transform="translate(904.97 607.87) rotate(180)"/>
  <path class="cls-8" d="M168.26,415.76c0,2.77-24.29,5.02-54.25,5.02s-54.25-2.25-54.25-5.02,24.29-5.02,54.25-5.02,54.25,2.25,54.25,5.02Z"/>
  <ellipse class="cls-8" cx="315.19" cy="421.12" rx="105.44" ry="10.38"/>
  <g>
    <rect class="cls-6" x="14.66" y="68.5" width="172.11" height="152.57" rx="10.76" ry="10.76"/>
    <rect class="cls-9" x="26.32" y="81.11" width="148.77" height="127.34"/>
    <line class="cls-33" x1="100.71" y1="81.11" x2="100.71" y2="208.45"/>
    <line class="cls-33" x1="175.09" y1="144.78" x2="26.32" y2="144.78"/>
    <polygon class="cls-2" points="91.41 81.11 41.52 208.36 63.58 208.36 114.01 81.11 91.41 81.11"/>
    <polygon class="cls-2" points="129.99 81.11 80.1 208.36 102.16 208.36 152.59 81.11 129.99 81.11"/>
  </g>
  <rect class="cls-22" x="338.23" y="201.53" width="146.49" height="13.66"/>
  <rect class="cls-16" x="391.28" y="201.53" width="93.44" height="13.66"/>
  <g>
    <path class="cls-12" d="M369.28,179.58h75.39v21.95h-75.39c-2.23,0-4.05-1.81-4.05-4.05v-13.85c0-2.23,1.81-4.05,4.05-4.05Z"/>
    <rect class="cls-14" x="370.99" y="184.22" width="74.95" height="12.67"/>
    <rect class="cls-9" x="370.81" y="184.22" width="53.5" height="12.67"/>
    <path class="cls-28" d="M357.01,157.64h75.39v21.95h-75.39c-2.23,0-4.05-1.81-4.05-4.05v-13.85c0-2.23,1.81-4.05,4.05-4.05Z"/>
    <rect class="cls-14" x="358.54" y="162.28" width="74.95" height="12.67"/>
    <rect class="cls-9" x="358.54" y="162.28" width="53.87" height="12.67"/>
    <path class="cls-18" d="M373.95,135.69h75.39v21.95h-75.39c-2.23,0-4.05-1.81-4.05-4.05v-13.85c0-2.23,1.81-4.05,4.05-4.05Z"/>
    <rect class="cls-14" x="375.73" y="140.33" width="74.95" height="12.67"/>
    <rect class="cls-9" x="375.48" y="140.33" width="50.52" height="12.67"/>
  </g>
  <g>
    <path class="cls-28" d="M366.12,314.54c.1,16.33-1.44,31.88-5.66,45.89,0,.01-.01.02-.01.03-11.82,39.21-44.7,66.22-121.58,63.72-104.34-3.4-123.3-100.42-132.05-191.13-7.11-73.61,15.02-127.78,81.44-145.61,15.45-4.15,33.29-6.33,53.72-6.33,93.9,0,123.74,171.36,124.14,233.43Z"/>
    <path class="cls-30" d="M360.45,360.46c-11.82,39.21-44.7,66.22-121.58,63.72-104.34-3.4-123.3-100.42-132.05-191.13-7.11-73.61,15.02-127.78,81.44-145.61-57.04,34.77-71.21,98.13-47.9,194.5,23.3,96.37,82.12,124.4,120.21,124.46,38.08.07,85.89-12.36,99.87-45.94Z"/>
    <path class="cls-30" d="M215.54,172.08c-74.43,13.25-41.96,119.56-25.51,149.33,16.45,29.77,23.46,65.02,61.48,66.59,38.01,1.57,86.59-15.67,91.29-28.2,4.7-12.53-16.81-77.87-16.81-77.87,0,0-2.97-66.12-23.58-83.49-20.6-17.37-62.16-30.77-86.88-26.37Z"/>
    <path class="cls-4" d="M315.19,351.38c-13.6,25.41-59.94,34.34-75.81,30.32-9.35-2.37-20.56-10.86-30.76-23.04-6.51-11.47-11.73-24.84-18.59-37.25-2.58-4.66-5.54-11.19-8.43-18.95-5.67-27.3-5.5-59.72,5.16-70.76,14.48-14.98,28.53-25.53,29.53-34.81.78-7.28-7.48-16.89-5.82-23.71,1.62-.41,3.31-.78,5.06-1.09,20.36-3.63,52.14,4.82,74.23,17.62,2.12,8.05,2.31,18.84,7.31,22.34,7.69,5.36,19.57,38.94,22.59,54.71,3,15.77-4.48,84.63-4.48,84.63Z"/>
  </g>
  <g>
    <path class="cls-18" d="M416.28,391.69c.6,9.57,28.27-2.64,31.93-7.93,0,0-15.15,43.54-23.04,43.54s-29.39-22.68-29.39-22.68l2.58-12.93h17.91Z"/>
    <path class="cls-15" d="M425.17,427.3c-8.58,3.68,12.87-50.46,23.04-49.24,10.17,1.22-11.96,44.48-23.04,49.24Z"/>
    <path class="cls-3" d="M419.56,329c-.56,27.99-7.83,62.69-7.83,62.69h-17.92s-11.01-23.62-16.18-47.39c-1.3-5.96-2.22-11.94-2.52-17.54,0,0-27.77,8.4-54.63,3.36-11.18-2.09-23.83-5.64-34.8-9.08-15.39-4.81-27.47-9.39-27.47-9.39l.91-1.16,19.59-24.79,52.73-7.93,6.18-.93,37.49,11.62c33.25,3.59,45.01,12.54,44.44,40.53Z"/>
    <path class="cls-7" d="M377.64,344.31c-1.3-5.96-2.22-11.94-2.52-17.54,0,0-27.77,8.4-54.63,3.36-11.18-2.09-23.83-5.64-34.8-9.08l-26.56-10.55-2.32-.92-4.4-18.34,56.72-19.82,22.33,6.36,37.51,10.67c-9.07,16.29,9.18,35.55,13.18,41.34,4.01,5.79,15.39-3.56,22.62,0,7.22,3.56-21.39,1.86-27.13,14.51Z"/>
    <path class="cls-18" d="M388.22,407.37c8.24,17.9,20.45,26.45,26.96,23.6l-2.85-29.71-11.8-5.09-12.31,11.19Z"/>
    <path class="cls-15" d="M415.18,430.96c-14.5,2.42-11.8-25.64-10.99-39.27.81-13.63,12.21-12.41,13.43-1.83,1.22,10.58,7.32,39.47-2.44,41.1Z"/>
    <path class="cls-5" d="M400.54,396.17l-12.31,11.2c-50.38-14.55-80.04-60.45-80.04-60.45-27.99,32.46-59.34,39.74-84.56,0,0,0,1.59-17.67,22.05-31.29,3.97-2.66,8.65-5.15,14.17-7.33,21.87-8.66,50.97-10.34,68.9-10.45,10.82-.06,20.95,5.21,27.2,14.05,10.55,14.91,20.6,33.4,28.49,49.26,9.7,19.5,16.11,35.02,16.11,35.02Z"/>
    <path class="cls-7" d="M400.54,396.17l-12.31,11.2c-50.38-14.55-80.04-60.45-80.04-60.45-27.99,32.46-59.34,39.74-84.56,0,0,0,1.59-17.67,22.05-31.29l21.11-3.9c-24.64,48.39,34.6,37.11,45.29,28.28,10.69-8.83,20.78-17.68,25.56-18.16,4.78-.49-20.41,18.12-2.65,39.31,17.76,21.2,58.74,34.4,49.44,0,9.7,19.5,16.11,35.02,16.11,35.02Z"/>
    <path class="cls-19" d="M277.75,155.14h-.75s-7.46,28.57-20.19,39.22c-2.29,1.92-4.76,3.26-7.38,3.74-17.17,3.17-32.13-16.39-34.96-29.81-1.58-7.5,1.21-12.11,3.98-14.69,2.17-2.07,4.34-2.87,4.34-2.87,0,0,1.13-21.17,8.5-20.78,7.09.37,5.9,3.17,5.81,3.39.46-.61,15.88-21.11,26.49-18.88,10.77,2.27,3.21,18.13,3.21,18.13,0,0,13.6-13.78,18.13-5.85,4.53,7.93-8.87,17.56-8.87,17.56,0,0,11.52-.18,12.66,3.98,1.13,4.15-.57,8.12-10.96,6.87Z"/>
    <path class="cls-25" d="M256.81,194.36c-2.29,1.92-4.76,3.26-7.38,3.74-17.17,3.17-32.13-16.39-34.96-29.81-1.58-7.5,1.21-12.11,3.98-14.69,2.56,3.32,5.97,9.97,13.77,1.54h3.62l20.97,39.22Z"/>
    <path class="cls-12" d="M302.41,279.34l-78.4,72.68c-3.81-3.43-7.13-7.01-10-10.73h-.01c-5.32-6.88-9.16-14.22-11.88-21.87-2.04-5.75-3.46-11.67-4.39-17.71-2.15-13.77-1.86-28.17-.98-42.47,2.04-33.49,12.16-55.85,52.36-56.42,0,0,18.43-5.15,32.07,2.2,10.73,5.77,17.72,48.44,20.21,66.39.68,4.87,1.02,7.92,1.02,7.92Z"/>
    <path class="cls-21" d="M285.71,246.24c-41.27,15.48-58.36-14.54-58.36-14.54l-13.35,47.97,28.56,8.8,49.72-5.18-6.57-37.05Z"/>
    <path class="cls-21" d="M302.41,279.34l-78.4,72.68c-3.81-3.43-7.13-7.01-10-10.73,13.64-1.03,42.94-33.65,35.24-35.35-6.89-1.51-30.59,14.61-47.13,13.48-2.04-5.75-3.46-11.67-4.39-17.71l25.19-22.05,78.46-8.24c.68,4.87,1.02,7.92,1.02,7.92Z"/>
    <path class="cls-24" d="M258.22,269.69c9.21-6.22,19.93-1.04,23.73,1.73,3.8,2.77,0,10.03,0,10.03,0,0-4.15-2.42-5.53-2.77-1.38-.35-8.05,4.84-21.31,2.77s3.11-11.76,3.11-11.76Z"/>
    <path class="cls-12" d="M204.41,226.26c18.06-13.47,28.29-1.63,27.41,21.64l-.87,23.27s23.03-7.35,28.67-7.35c0,0,.49,15.92,0,21.64,0,0-27.85,26.95-46.22,28.99-18.37,2.04-14.7-34.3-16.33-51.04-1.63-16.74,1.08-32.48,7.35-37.16Z"/>
    <g>
      <path class="cls-13" d="M278.77,282.52l13.7-55.49c1.4-5.66,6.47-9.63,12.3-9.63h78.61c5.16,0,8.94,4.86,7.66,9.86l-15.86,58.02-96.4-2.77Z"/>
      <path class="cls-9" d="M284.27,282.52l13.7-55.49c1.4-5.66,6.47-9.63,12.3-9.63h78.61c5.16,0,8.94,4.86,7.66,9.86l-15.86,58.02-96.4-2.77Z"/>
      <path class="cls-13" d="M357.96,288.05h-100.01c-1.53,0-2.77-1.24-2.77-2.77h0c0-1.53,1.24-2.77,2.77-2.77h100.01c1.53,0,2.77,1.24,2.77,2.77h0c0,1.53-1.24,2.77-2.77,2.77Z"/>
      <path class="cls-9" d="M381.54,288.05h-100.01c-1.53,0-2.77-1.24-2.77-2.77h0c0-1.53,1.24-2.77,2.77-2.77h100.01c1.53,0,2.77,1.24,2.77,2.77h0c0,1.53-1.24,2.77-2.77,2.77Z"/>
      <path class="cls-13" d="M348.1,251.18c-1.32,7.21-4.59,12.66-7.3,12.16s-3.85-6.75-2.53-13.96c1.32-7.21,4.59-12.66,7.3-12.16,2.72.5,3.85,6.75,2.53,13.96Z"/>
    </g>
    <path class="cls-24" d="M282.23,159.78c1.74,25.55-2.32,36.87-16.84,38.32v5.95c0,4.41-3.57,7.98-7.98,7.98h0c-4.41,0-7.98-3.57-7.98-7.98v-5.95s-11.61-4.94-13.94-12.19c-2.32-7.26,0-1.16,0-1.16l-1.03-29.61h48.15l-.38,4.65Z"/>
    <path class="cls-24" d="M236.22,173.62c-3.65-6.66-7.95-3.87-8.8,0-.86,3.87,6.87,13.28,8.8,9.97,1.93-3.31,0-9.97,0-9.97Z"/>
    <path class="cls-19" d="M228.22,151.86c7.77,9.45,29.81,14.36,37.79,12.09,7.98-2.27-3.36-9.63-3.36-9.63,0,0,14.79,10.2,21.56,6.8,6.77-3.4-11.49-11.71-11.49-11.71l-44.5,2.46Z"/>
    <path class="cls-31" d="M254.62,172.08c0,1.37-.24,2.47-.55,2.47s-.55-1.11-.55-2.47.25-2.47.55-2.47.55,1.11.55,2.47Z"/>
    <path class="cls-31" d="M270.32,172.08c0,1.37-.24,2.47-.55,2.47s-.55-1.11-.55-2.47.25-2.47.55-2.47.55,1.11.55,2.47Z"/>
    <path class="cls-32" d="M263.99,185.88c-7.52.17-13.34-5.24-13.34-5.24"/>
    <path class="cls-26" d="M265.4,198.1c-6.43.58-13.89.34-13.89.34l13.89,5.61v-5.95Z"/>
    <path class="cls-26" d="M235.84,175.41c-3.25-3.42-4.85-2.01-4.64,1.54.22,3.55,4.5,6.09,5.88,5.08,1.39-1.02-1.25-6.61-1.25-6.61Z"/>
  </g>
  <g>
    <g>
      <path class="cls-20" d="M108.53,353.32c-14.44-5.3-22.39-3.24-26.81-9.13,0,0,11.79-2.06,18.27,0l8.54,9.13Z"/>
      <path class="cls-1" d="M99.99,344.19c-17.55-9.17-22.75-19.57-27.21-26.76-4.46-7.19-6.94-13.13-8.67-13.63-1.73-.5,7.19,1.24,15.61,9.66,8.42,8.42,11.89,9.66,18.58,16.35,6.69,6.69,12.64,16.53,13.38,23.51h-3.15l-8.54-9.13Z"/>
      <path class="cls-20" d="M104.99,341.71c-9.48-14.55-.97-22.9-12.39-39.4-13.38-19.33-9.17-38.65-7.19-50.79,0,0-2.97,14.13,8.68,27.88,11.64,13.75,23.04,19.07,24.03,39.58.99,20.5-2.97,34.35-2.97,34.35h-6.62l-3.54-11.61Z"/>
      <path class="cls-1" d="M113.62,353.32c-3.18-13.63,3.02-36.89,3.51-59.93.5-23.04-12.39-40.14,6.69-61.7,0,0-3.96,3.96,1.49,19.82,5.45,15.86,17.59,32.46,11.65,53.77-5.95,21.31-18.76,38.76-18.67,48.04h-4.66Z"/>
      <path class="cls-17" d="M118.28,353.32c-1.98-16.35,14.71-41.84,28.83-47.54,0,0,1.49,12.53-7.68,22.74-9.17,10.21-15.98,24.8-15.98,24.8h-5.17Z"/>
      <path class="cls-23" d="M123.45,353.32c.62-10.87,10.04-14.68,19.7-17.48,0,0-11.65,11.75-13.63,17.48h-6.07Z"/>
      <path class="cls-11" d="M127.98,354.56c1.65-8.23,5.36-10.82,4.68-11.29-.68-.47-4.9,6.46-7.03,10.05,0,0-2.83-9.39,1.41-17.48,4.23-8.09,8.23-14.21,8.23-14.21,0,0-13.64,15.76-14.35,23.72,0,0-1.41-8.01.94-18.33,2.35-10.33,8.47-20.21,6.23-32.44-2.23-12.23-4.65-25.28-4.65-25.28,0,0,1.02,12.44,2.19,23.21,1.17,10.78-2.02,16.42-5.13,27.95-3.11,11.53-1.37,27.93-2.71,27.84-1.34-.08-3.46,2.97-3.46,2.97,0,0-1.42-17.64-3.53-32.7-2.11-15.05-1.88-17.08-11.05-26.06-9.17-8.98-10.35-14.47-10.35-14.47,0,0,6.19,12.31,11.33,20.31,5.14,8,6.78,11.53,6.78,25.64s.71,22.05,1.88,24.31c1.18,2.27-8.7-13.41-16.47-18.74-7.76-5.33-14.11-12.62-14.82-13.8-.71-1.18,7.53,13.64,13.64,17.64,6.12,4,16.77,17.64,16.77,17.64l-17.48-4.7,19.75,8.23h17.18Z"/>
    </g>
    <path class="cls-27" d="M143.57,357.71l-9.3,53.57c-.11.65-.34,1.25-.65,1.79-.94,1.62-2.7,2.69-4.67,2.69h-33.46c-2.65,0-4.92-1.92-5.34-4.53l-8.72-53.57c-.53-3.29,2.01-6.28,5.34-6.28h51.46c3.36,0,5.9,3.02,5.33,6.33Z"/>
    <path class="cls-7" d="M133.61,413.07c-.94,1.62-2.7,2.69-4.67,2.69h-33.46c-2.65,0-4.92-1.92-5.34-4.53l-8.72-53.57c-.53-3.29,2.01-6.28,5.34-6.28h17.69c-16.41,25.48,10.96,55.1,29.15,61.69Z"/>
  </g>
  <path class="cls-28" d="M190.03,321.41c6.86,12.41,12.07,25.78,18.59,37.25-7.13-8.51-13.76-18.82-18.92-30.14-3.3-7.23-6.07-16.32-8.09-26.06,2.89,7.76,5.85,14.29,8.43,18.95Z"/>
</svg>