<svg width="144" height="144" viewBox="0 0 144 144" fill="none" xmlns="http://www.w3.org/2000/svg">
<g clip-path="url(#clip0_9_7)">
<path d="M91.343 46.4487C90.1437 36.0812 75.9677 26.926 61.2177 27.076L46.1468 27H35.5162C33.0222 27 31 29.0225 31 31.5182V113.395C31 115.897 33.0271 117.925 35.5279 117.925L46.0709 118.001H76.3655C84.7307 118.001 91.5123 111.216 91.5123 102.846H76.3081H67.1259H60.9055C52.7553 102.846 46.1478 96.2357 46.1478 88.0815V56.9185C46.1478 48.7643 52.7553 42.1535 60.9055 42.1535C67.5432 42.1535 73.2023 45.8294 75.3938 51.4782C75.2362 50.9027 75.137 50.3028 75.1078 49.6845C75.101 49.5492 75.0971 49.4128 75.0971 49.2755C75.0971 49.2687 75.0971 49.2629 75.0971 49.257C75.0971 49.3885 75.101 49.519 75.1068 49.6495C75.137 50.2707 75.2362 50.8725 75.3947 51.4509C75.491 51.8034 75.6087 52.1462 75.7478 52.4792C76.3149 53.8307 77.2263 55.0012 78.3722 55.8824C79.7816 56.9662 81.5451 57.6118 83.4594 57.6118C85.6314 57.6118 87.6079 56.7822 89.0942 55.4238C90.3451 54.2806 91.0678 52.8882 91.4442 51.1714C91.524 50.8082 91.3819 46.5636 91.3411 46.4487H91.343Z" fill="#FA7E26"/>
<path d="M106.431 49.7692C102.252 49.7692 98.8629 53.1618 98.8629 57.346V76.3643C98.8629 78.415 97.2026 80.0772 95.1541 80.0772H94.2456C92.1971 80.0772 90.5367 78.415 90.5367 76.3643V72.3466C90.5367 68.2471 87.2169 64.9227 83.1209 64.9227H82.8145C78.7194 64.9227 75.3986 68.2462 75.3986 72.3466V76.3643C75.3986 78.415 73.7383 80.0772 71.6898 80.0772C69.6413 80.0772 67.9809 78.415 67.9809 76.3643V57.346C67.9809 53.1618 64.592 49.7692 60.4123 49.7692C56.2327 49.7692 52.8438 53.1618 52.8438 57.346V87.654C52.8438 91.4789 55.6743 94.6397 59.3531 95.1558V95.2308H106.431C110.611 95.2308 114 91.8382 114 87.654V57.346C114 53.1618 110.611 49.7692 106.431 49.7692Z" fill="#4189F5"/>
</g>
<defs>
<clipPath id="clip0_9_7">
<rect width="83" height="91" fill="white" transform="translate(31 27)"/>
</clipPath>
</defs>
</svg>
