<svg width="512" height="512" viewBox="0 0 512 512" fill="none" xmlns="http://www.w3.org/2000/svg">
<g clip-path="url(#clip0_9_15)">
<path d="M324.561 161.742C320.198 124.032 268.617 90.7308 214.949 91.2763L160.112 91H121.433C112.358 91 105 98.3565 105 107.434V405.25C105 414.349 112.376 421.727 121.475 421.727L159.836 422.004H270.065C300.502 422.004 325.177 397.324 325.177 366.881H269.856H236.446H213.813C184.158 366.881 160.116 342.835 160.116 313.176V199.824C160.116 170.165 184.158 146.119 213.813 146.119C237.964 146.119 258.555 159.489 266.529 180.036C265.956 177.943 265.595 175.761 265.489 173.512C265.464 173.019 265.45 172.524 265.45 172.024C265.45 171.999 265.45 171.978 265.45 171.957C265.45 172.435 265.464 172.91 265.485 173.384C265.595 175.644 265.956 177.833 266.533 179.937C266.883 181.219 267.311 182.466 267.817 183.677C269.881 188.593 273.197 192.851 277.366 196.056C282.494 199.998 288.911 202.346 295.876 202.346C303.779 202.346 310.971 199.329 316.379 194.388C320.93 190.23 323.56 185.165 324.929 178.92C325.22 177.599 324.703 162.16 324.554 161.742H324.561Z" fill="#FA7E26"/>
<path d="M379.461 173.82C364.254 173.82 351.923 186.16 351.923 201.379V270.556C351.923 278.015 345.882 284.061 338.428 284.061H335.122C327.669 284.061 321.627 278.015 321.627 270.556V255.942C321.627 241.031 309.548 228.939 294.645 228.939H293.53C278.63 228.939 266.547 241.027 266.547 255.942V270.556C266.547 278.015 260.505 284.061 253.052 284.061C245.598 284.061 239.557 278.015 239.557 270.556V201.379C239.557 186.16 227.226 173.82 212.018 173.82C196.81 173.82 184.48 186.16 184.48 201.379V311.621C184.48 325.533 194.779 337.03 208.164 338.907V339.18H379.461C394.669 339.18 407 326.84 407 311.621V201.379C407 186.16 394.669 173.82 379.461 173.82Z" fill="#4189F5"/>
</g>
<defs>
<clipPath id="clip0_9_15">
<rect width="302" height="331" fill="white" transform="translate(105 91)"/>
</clipPath>
</defs>
</svg>
