<?xml version="1.0" encoding="UTF-8"?>
<svg id="Layer_1" data-name="Layer 1" xmlns="http://www.w3.org/2000/svg" viewBox="0 0 592.25 648.63">
  <defs>
    <style>
      .cls-1 {
        fill: #4189f5;
      }

      .cls-1, .cls-2 {
        stroke-width: 0px;
      }

      .cls-2 {
        fill: #fa7e26;
      }
    </style>
  </defs>
  <path class="cls-2" d="M430.58,138.62C422.02,64.73,320.87-.53,215.62.54l-107.54-.54H32.22C14.43,0,0,14.42,0,32.2v583.6c0,17.83,14.47,32.29,32.31,32.29l75.23.54h216.17c59.69,0,108.08-48.36,108.08-108.02h-108.49s-65.52,0-65.52,0h-44.38c-58.16,0-105.31-47.12-105.31-105.24v-222.12c0-58.12,47.15-105.24,105.31-105.24h0c47.36,0,87.75,26.2,103.38,66.47-1.12-4.1-1.83-8.38-2.04-12.78-.05-.97-.07-1.94-.07-2.92,0-.05,0-.09,0-.14,0,.94.03,1.87.07,2.79.21,4.43.93,8.72,2.05,12.84.69,2.51,1.53,4.96,2.52,7.33,4.05,9.63,10.55,17.98,18.73,24.26,10.06,7.72,22.64,12.33,36.3,12.33,15.5,0,29.6-5.91,40.21-15.6,8.93-8.15,14.08-18.07,16.77-30.31.57-2.59-.44-32.84-.73-33.66Z"/>
  <path class="cls-1" d="M538.25,162.29h0c-29.83,0-54.01,24.18-54.01,54.01v135.56c0,14.62-11.85,26.46-26.46,26.46h-6.48c-14.62,0-26.46-11.85-26.46-26.46v-28.64c0-29.22-23.69-52.91-52.91-52.91h-2.19c-29.22,0-52.91,23.69-52.91,52.91v28.64c0,14.62-11.85,26.46-26.46,26.46h0c-14.62,0-26.46-11.85-26.46-26.46v-135.56c0-29.83-24.18-54.01-54.01-54.01h0c-29.83,0-54.01,24.18-54.01,54.01v216.03c0,27.26,20.2,49.79,46.45,53.47v.54h335.93c29.83,0,54.01-24.18,54.01-54.01v-216.03c0-29.83-24.18-54.01-54.01-54.01Z"/>
</svg>