<?xml version="1.0" encoding="UTF-8"?>
<svg id="Layer_1" data-name="Layer 1" xmlns="http://www.w3.org/2000/svg" viewBox="0 0 527.3 578">
  <defs>
    <style>
      .cls-1 {
        fill: #4189f5;
      }

      .cls-1, .cls-2 {
        stroke-width: 0px;
      }

      .cls-2 {
        fill: #fa7e26;
      }
    </style>
  </defs>
  <path class="cls-2" d="M383.4,123.9C375.7,58.1,285.7,0,192,1l-95.7-.5H28.7C12.8.5,0,13.3,0,29.1v519.6c0,15.9,12.9,28.7,28.8,28.7l67,.5h192.5c53.1,0,96.2-43.1,96.2-96.2h-96.6s-58.3,0-58.3,0h-39.5c-51.8,0-93.8-42-93.8-93.7v-197.8c0-51.7,42-93.7,93.8-93.7h0c42.2,0,78.1,23.3,92,59.2-1-3.7-1.6-7.5-1.8-11.4,0-.9,0-1.7,0-2.6s0,0,0-.1c0,.8,0,1.7,0,2.5.2,3.9.8,7.8,1.8,11.4.6,2.2,1.4,4.4,2.2,6.5,3.6,8.6,9.4,16,16.7,21.6,9,6.9,20.2,11,32.3,11s26.4-5.3,35.8-13.9c7.9-7.3,12.5-16.1,14.9-27,.5-2.3-.4-29.2-.7-30Z"/>
  <path class="cls-1" d="M479.2,145.2h0c-26.6,0-48.1,21.5-48.1,48.1v120.7c0,13-10.5,23.6-23.6,23.6h-5.8c-13,0-23.6-10.5-23.6-23.6v-25.5c0-26-21.1-47.1-47.1-47.1h-1.9c-26,0-47.1,21.1-47.1,47.1v25.5c0,13-10.5,23.6-23.6,23.6h0c-13,0-23.6-10.5-23.6-23.6v-120.7c0-26.6-21.5-48.1-48.1-48.1h0c-26.6,0-48.1,21.5-48.1,48.1v192.3c0,24.3,18,44.3,41.4,47.6v.5h299.1c26.6,0,48.1-21.5,48.1-48.1v-192.3c0-26.6-21.5-48.1-48.1-48.1Z"/>
  <circle class="cls-1" cx="480" cy="47.2" r="47.2"/>
</svg>