<?xml version="1.0" encoding="UTF-8"?><svg id="OBJECTS" xmlns="http://www.w3.org/2000/svg" width="410" height="312" viewBox="0 0 410 312"><defs><style>.cls-1{fill:#b7ac15;}.cls-1,.cls-2,.cls-3,.cls-4,.cls-5,.cls-6,.cls-7,.cls-8,.cls-9,.cls-10,.cls-11,.cls-12,.cls-13,.cls-14,.cls-15,.cls-16,.cls-17,.cls-18,.cls-19,.cls-20,.cls-21,.cls-22,.cls-23,.cls-24,.cls-25,.cls-26,.cls-27,.cls-28,.cls-29,.cls-30{stroke-width:0px;}.cls-2{fill:#fff;}.cls-2,.cls-7{opacity:.5;}.cls-3{fill:#31344c;}.cls-4{fill:#f27c49;}.cls-5,.cls-21{fill:#383952;}.cls-31{stroke:#191918;stroke-width:2px;}.cls-31,.cls-32,.cls-33{fill:none;stroke-miterlimit:10;}.cls-6{fill:#aab2c8;}.cls-7{fill:#232433;}.cls-8{fill:#ffe5e2;}.cls-9{fill:#e0e7ff;}.cls-10{fill:#3b364d;}.cls-11,.cls-21{opacity:.4;}.cls-11,.cls-23{fill:#426313;}.cls-12{fill:#61648a;}.cls-13{fill:#c3c9f4;}.cls-32{stroke:#e56a85;stroke-linecap:round;}.cls-14{fill:#edf1fc;}.cls-15{fill:#d35473;}.cls-16{fill:#965363;}.cls-17{fill:#a88f14;}.cls-18{fill:#af2f48;}.cls-19{fill:#6d3744;}.cls-20{fill:#7c9e1e;}.cls-22{fill:#773c4d;}.cls-33{stroke:#aab2c8;}.cls-24{fill:#f4b8ab;}.cls-25{fill:#542633;}.cls-26{fill:#dd6595;opacity:.5;}.cls-27{fill:#3a3852;}.cls-28{fill:#ffc55a;}.cls-29{fill:#fff8f8;}.cls-30{fill:#f49947;}</style></defs><path class="cls-29" d="M382.3,298.4c53.2-54.4,30.2-138.9-73-158.2C206.2,121,183.9,5.5,90.1,29.6-3.7,53.7-39.3,231,57,298.4h325.3Z"/><rect class="cls-10" x="375.7" y="120.2" width="6.6" height="164.3" transform="translate(758 404.7) rotate(180)"/><path class="cls-8" d="M134.8,298.4c0,2.4-20.9,4.3-46.6,4.3s-46.6-1.9-46.6-4.3,20.9-4.3,46.6-4.3,46.6,1.9,46.6,4.3Z"/><ellipse class="cls-8" cx="261" cy="303" rx="90.6" ry="8.9"/><rect class="cls-6" x="2.7" width="147.9" height="131.1" rx="10.8" ry="10.8"/><rect class="cls-9" x="12.8" y="10.8" width="127.9" height="109.4"/><line class="cls-33" x1="76.7" y1="10.8" x2="76.7" y2="120.3"/><line class="cls-33" x1="140.6" y1="65.6" x2="12.8" y2="65.6"/><polygon class="cls-2" points="68.7 10.8 25.8 120.2 44.8 120.2 88.1 10.8 68.7 10.8"/><polygon class="cls-2" points="101.9 10.8 59 120.2 77.9 120.2 121.3 10.8 101.9 10.8"/><rect class="cls-22" x="280.8" y="114.3" width="125.9" height="11.7"/><rect class="cls-16" x="326.4" y="114.3" width="80.3" height="11.7"/><path class="cls-12" d="M308.1,95.5h64.2v18.9h-64.2c-2.2,0-4-1.8-4-4v-10.8c0-2.2,1.8-4,4-4Z"/><rect class="cls-14" x="309" y="99.5" width="64.4" height="10.9"/><rect class="cls-9" x="308.8" y="99.5" width="46" height="10.9"/><path class="cls-28" d="M297.5,76.6h64.2v18.9h-64.2c-2.2,0-4-1.8-4-4v-10.8c0-2.2,1.8-4,4-4Z"/><rect class="cls-14" x="298.3" y="80.6" width="64.4" height="10.9"/><rect class="cls-9" x="298.3" y="80.6" width="46.3" height="10.9"/><path class="cls-18" d="M312.1,57.7h64.2v18.9h-64.2c-2.2,0-4-1.8-4-4v-10.8c0-2.2,1.8-4,4-4Z"/><rect class="cls-14" x="313.1" y="61.7" width="64.4" height="10.9"/><rect class="cls-9" x="312.8" y="61.7" width="43.4" height="10.9"/><path class="cls-28" d="M304.8,211.4c0,14-1.2,27.4-4.9,39.4,0,0,0,0,0,0-10.2,33.7-38.4,56.9-104.5,54.8-89.7-2.9-106-86.3-113.5-164.3-6.1-63.3,12.9-109.8,70-125.1,13.3-3.6,28.6-5.4,46.2-5.4,80.7,0,106.3,147.3,106.7,200.6Z"/><path class="cls-30" d="M299.9,250.9c-10.2,33.7-38.4,56.9-104.5,54.8-89.7-2.9-106-86.3-113.5-164.3-6.1-63.3,12.9-109.8,70-125.1-49,29.9-61.2,84.3-41.2,167.2,20,82.8,70.6,106.9,103.3,107,32.7,0,73.8-10.6,85.8-39.5Z"/><path class="cls-30" d="M175.4,89c-64,11.4-36.1,102.8-21.9,128.3,14.1,25.6,20.2,55.9,52.8,57.2,32.7,1.3,74.4-13.5,78.5-24.2,4-10.8-14.4-66.9-14.4-66.9,0,0-2.6-56.8-20.3-71.7-17.7-14.9-53.4-26.4-74.7-22.7Z"/><path class="cls-4" d="M261,243.1c-11.7,21.8-51.5,29.5-65.2,26.1-8-2-17.7-9.3-26.4-19.8-5.6-9.9-10.1-21.3-16-32-2.2-4-4.8-9.6-7.2-16.3-4.9-23.5-4.7-51.3,4.4-60.8,12.4-12.9,24.5-21.9,25.4-29.9.7-6.3-6.4-14.5-5-20.4,1.4-.4,2.8-.7,4.3-.9,17.5-3.1,44.8,4.1,63.8,15.1,1.8,6.9,2,16.2,6.3,19.2,6.6,4.6,16.8,33.5,19.4,47,2.6,13.6-3.8,72.7-3.8,72.7Z"/><path class="cls-18" d="M347.9,277.8c.5,8.2,24.3-2.3,27.4-6.8,0,0-13,37.4-19.8,37.4s-25.3-19.5-25.3-19.5l2.2-11.1h15.4Z"/><path class="cls-15" d="M355.5,308.4c-7.4,3.2,11.1-43.4,19.8-42.3,8.7,1-10.3,38.2-19.8,42.3Z"/><path class="cls-3" d="M350.7,223.9c-.5,24.1-6.7,53.9-6.7,53.9h-15.4s-9.5-20.3-13.9-40.7c-1.1-5.1-1.9-10.3-2.2-15.1,0,0-23.9,7.2-46.9,2.9-9.6-1.8-20.5-4.8-29.9-7.8-13.2-4.1-23.6-8.1-23.6-8.1l.8-1,16.8-21.3,45.3-6.8,5.3-.8,32.2,10c28.6,3.1,38.7,10.8,38.2,34.8Z"/><path class="cls-7" d="M314.7,237c-1.1-5.1-1.9-10.3-2.2-15.1,0,0-23.9,7.2-46.9,2.9-9.6-1.8-20.5-4.8-29.9-7.8l-22.8-9.1-2-.8-3.8-15.8,48.7-17,19.2,5.5,32.2,9.2c-7.8,14,7.9,30.6,11.3,35.5,3.4,5,13.2-3.1,19.4,0,6.2,3.1-18.4,1.6-23.3,12.5Z"/><path class="cls-18" d="M323.8,291.2c7.1,15.4,17.6,22.7,23.2,20.3l-2.4-25.5-10.1-4.4-10.6,9.6Z"/><path class="cls-15" d="M347,311.5c-12.5,2.1-10.1-22-9.4-33.7.7-11.7,10.5-10.7,11.5-1.6,1,9.1,6.3,33.9-2.1,35.3Z"/><path class="cls-5" d="M334.4,281.6l-10.6,9.6c-43.3-12.5-68.8-52-68.8-52-24.1,27.9-51,34.2-72.7,0,0,0,1.4-15.2,18.9-26.9,3.4-2.3,7.4-4.4,12.2-6.3,18.8-7.4,43.8-8.9,59.2-9,9.3,0,18,4.5,23.4,12.1,9.1,12.8,17.7,28.7,24.5,42.3,8.3,16.8,13.8,30.1,13.8,30.1Z"/><path class="cls-7" d="M334.4,281.6l-10.6,9.6c-43.3-12.5-68.8-52-68.8-52-24.1,27.9-51,34.2-72.7,0,0,0,1.4-15.2,18.9-26.9l18.1-3.4c-21.2,41.6,29.7,31.9,38.9,24.3,9.2-7.6,17.9-15.2,22-15.6,4.1-.4-17.5,15.6-2.3,33.8,15.3,18.2,50.5,29.6,42.5,0,8.3,16.8,13.8,30.1,13.8,30.1Z"/><path class="cls-19" d="M228.8,74.5h-.6s-6.4,24.6-17.4,33.7c-2,1.6-4.1,2.8-6.3,3.2-14.8,2.7-27.6-14.1-30-25.6-1.4-6.4,1-10.4,3.4-12.6,1.9-1.8,3.7-2.5,3.7-2.5,0,0,1-18.2,7.3-17.9,6.1.3,5.1,2.7,5,2.9.4-.5,13.6-18.1,22.8-16.2,9.3,2,2.8,15.6,2.8,15.6,0,0,11.7-11.8,15.6-5,3.9,6.8-7.6,15.1-7.6,15.1,0,0,9.9-.2,10.9,3.4,1,3.6-.5,7-9.4,5.9Z"/><path class="cls-25" d="M210.8,108.2c-2,1.6-4.1,2.8-6.3,3.2-14.8,2.7-27.6-14.1-30-25.6-1.4-6.4,1-10.4,3.4-12.6,2.2,2.8,5.1,8.6,11.8,1.3h3.1l18,33.7Z"/><path class="cls-12" d="M250,181.2l-67.4,62.5c-3.3-2.9-6.1-6-8.6-9.2h0c-4.6-5.9-7.9-12.2-10.2-18.8-1.8-4.9-3-10-3.8-15.2-1.8-11.8-1.6-24.2-.8-36.5,1.8-28.8,10.4-48,45-48.5,0,0,15.8-4.4,27.6,1.9,9.2,5,15.2,41.6,17.4,57.1.6,4.2.9,6.8.9,6.8Z"/><path class="cls-21" d="M235.7,152.8c-35.5,13.3-50.2-12.5-50.2-12.5l-11.5,41.2,24.5,7.6,42.7-4.4-5.6-31.8Z"/><path class="cls-21" d="M250,181.2l-67.4,62.5c-3.3-2.9-6.1-6-8.6-9.2,11.7-.9,36.9-28.9,30.3-30.4-5.9-1.3-26.3,12.6-40.5,11.6-1.8-4.9-3-10-3.8-15.2l21.6-18.9,67.4-7.1c.6,4.2.9,6.8.9,6.8Z"/><path class="cls-24" d="M212.1,172.9c7.9-5.3,17.1-.9,20.4,1.5,3.3,2.4,0,8.6,0,8.6,0,0-3.6-2.1-4.8-2.4-1.2-.3-6.9,4.2-18.3,2.4-11.4-1.8,2.7-10.1,2.7-10.1Z"/><path class="cls-12" d="M165.8,135.6c15.5-11.6,24.3-1.4,23.6,18.6l-.8,20s19.8-6.3,24.6-6.3c0,0,.4,13.7,0,18.6,0,0-23.9,23.2-39.7,24.9-15.8,1.8-12.6-29.5-14-43.9-1.4-14.4.9-27.9,6.3-31.9Z"/><path class="cls-13" d="M229.7,183.9l11.8-47.7c1.2-4.9,5.6-8.3,10.6-8.3h67.6c4.4,0,7.7,4.2,6.6,8.5l-13.6,49.9-82.8-2.4Z"/><path class="cls-9" d="M234.5,183.9l11.8-47.7c1.2-4.9,5.6-8.3,10.6-8.3h67.6c4.4,0,7.7,4.2,6.6,8.5l-13.6,49.9-82.8-2.4Z"/><path class="cls-13" d="M297.8,188.7h-85.9c-1.3,0-2.4-1.1-2.4-2.4h0c0-1.3,1.1-2.4,2.4-2.4h85.9c1.3,0,2.4,1.1,2.4,2.4h0c0,1.3-1.1,2.4-2.4,2.4Z"/><path class="cls-9" d="M318,188.7h-85.9c-1.3,0-2.4-1.1-2.4-2.4h0c0-1.3,1.1-2.4,2.4-2.4h85.9c1.3,0,2.4,1.1,2.4,2.4h0c0,1.3-1.1,2.4-2.4,2.4Z"/><path class="cls-13" d="M289.3,157c-1.1,6.2-3.9,10.9-6.3,10.5s-3.3-5.8-2.2-12c1.1-6.2,3.9-10.9,6.3-10.5,2.3.4,3.3,5.8,2.2,12Z"/><path class="cls-24" d="M232.7,78.4c1.5,22-2,31.7-14.5,32.9v5.1c0,3.8-3.1,6.9-6.9,6.9h0c-3.8,0-6.9-3.1-6.9-6.9v-5.1s-10-4.2-12-10.5,0-1,0-1l-.9-25.4h41.4l-.3,4Z"/><path class="cls-24" d="M193.2,90.3c-3.1-5.7-6.8-3.3-7.6,0-.7,3.3,5.9,11.4,7.6,8.6,1.7-2.8,0-8.6,0-8.6Z"/><path class="cls-19" d="M186.3,71.6c6.7,8.1,25.6,12.3,32.5,10.4,6.9-1.9-2.9-8.3-2.9-8.3,0,0,12.7,8.8,18.5,5.8,5.8-2.9-9.9-10.1-9.9-10.1l-38.2,2.1Z"/><path class="cls-31" d="M209,89c0,1.2-.2,2.1-.5,2.1s-.5-1-.5-2.1.2-2.1.5-2.1.5,1,.5,2.1Z"/><path class="cls-31" d="M222.5,89c0,1.2-.2,2.1-.5,2.1s-.5-1-.5-2.1.2-2.1.5-2.1.5,1,.5,2.1Z"/><path class="cls-32" d="M217,100.9c-6.5.1-11.5-4.5-11.5-4.5"/><path class="cls-26" d="M218.2,111.4c-5.5.5-11.9.3-11.9.3l11.9,4.8v-5.1Z"/><path class="cls-26" d="M192.8,91.9c-2.8-2.9-4.2-1.7-4,1.3.2,3.1,3.9,5.2,5.1,4.4,1.2-.9-1.1-5.7-1.1-5.7Z"/><path class="cls-20" d="M83.4,244.8c-12.4-4.6-19.2-2.8-23-7.8,0,0,10.1-1.8,15.7,0l7.3,7.8Z"/><path class="cls-1" d="M76.1,236.9c-15.1-7.9-19.5-16.8-23.4-23-3.8-6.2-6-11.3-7.5-11.7-1.5-.4,6.2,1.1,13.4,8.3,7.2,7.2,10.2,8.3,16,14.1,5.7,5.7,10.9,14.2,11.5,20.2h-2.7l-7.3-7.8Z"/><path class="cls-20" d="M80.4,234.8c-8.1-12.5-.8-19.7-10.6-33.9-11.5-16.6-7.9-33.2-6.2-43.7,0,0-2.6,12.1,7.5,24,10,11.8,19.8,16.4,20.7,34,.9,17.6-2.6,29.5-2.6,29.5h-5.7l-3-10Z"/><path class="cls-1" d="M87.8,244.8c-2.7-11.7,2.6-31.7,3-51.5.4-19.8-10.6-34.5,5.7-53,0,0-3.4,3.4,1.3,17,4.7,13.6,15.1,27.9,10,46.2s-16.1,33.3-16,41.3h-4Z"/><path class="cls-17" d="M91.8,244.8c-1.7-14.1,12.6-36,24.8-40.9,0,0,1.3,10.8-6.6,19.5-7.9,8.8-13.7,21.3-13.7,21.3h-4.4Z"/><path class="cls-23" d="M96.2,244.8c.5-9.3,8.6-12.6,16.9-15,0,0-10,10.1-11.7,15h-5.2Z"/><path class="cls-11" d="M100.1,245.8c1.4-7.1,4.6-9.3,4-9.7-.6-.4-4.2,5.6-6,8.6,0,0-2.4-8.1,1.2-15,3.6-7,7.1-12.2,7.1-12.2,0,0-11.7,13.5-12.3,20.4,0,0-1.2-6.9.8-15.8,2-8.9,7.3-17.4,5.4-27.9-1.9-10.5-4-21.7-4-21.7,0,0,.9,10.7,1.9,19.9,1,9.3-1.7,14.1-4.4,24-2.7,9.9-1.2,24-2.3,23.9-1.2,0-3,2.6-3,2.6,0,0-1.2-15.2-3-28.1-1.8-12.9-1.6-14.7-9.5-22.4-7.9-7.7-8.9-12.4-8.9-12.4,0,0,5.3,10.6,9.7,17.5,4.4,6.9,5.8,9.9,5.8,22s.6,18.9,1.6,20.9c1,1.9-7.5-11.5-14.2-16.1-6.7-4.6-12.1-10.8-12.7-11.9-.6-1,6.5,11.7,11.7,15.2,5.3,3.4,14.4,15.2,14.4,15.2l-15-4,17,7.1h14.8Z"/><path class="cls-27" d="M113.5,248.6l-8,46c0,.6-.3,1.1-.6,1.5-.8,1.4-2.3,2.3-4,2.3h-28.8c-2.3,0-4.2-1.7-4.6-3.9l-7.5-46c-.5-2.8,1.7-5.4,4.6-5.4h44.2c2.9,0,5.1,2.6,4.6,5.4Z"/><path class="cls-7" d="M105,296.1c-.8,1.4-2.3,2.3-4,2.3h-28.8c-2.3,0-4.2-1.7-4.6-3.9l-7.5-46c-.5-2.8,1.7-5.4,4.6-5.4h15.2c-14.1,21.9,9.4,47.3,25,53Z"/><path class="cls-28" d="M153.5,217.4c5.9,10.7,10.4,22.2,16,32-6.1-7.3-11.8-16.2-16.3-25.9-2.8-6.2-5.2-14-7-22.4,2.5,6.7,5,12.3,7.2,16.3Z"/></svg>