<?xml version="1.0" encoding="UTF-8" standalone="no"?>
<!DOCTYPE svg PUBLIC "-//W3C//DTD SVG 1.1//EN" "http://www.w3.org/Graphics/SVG/1.1/DTD/svg11.dtd">
<svg width="100%" height="100%" viewBox="0 0 4500 4500" version="1.1" xmlns="http://www.w3.org/2000/svg" xmlns:xlink="http://www.w3.org/1999/xlink" xml:space="preserve" xmlns:serif="http://www.serif.com/" style="fill-rule:evenodd;clip-rule:evenodd;stroke-linejoin:round;stroke-miterlimit:2;">
    <g transform="matrix(7.30575,0,0,7.29209,3821.23,3851.46)">
        <g id="Layer-1" serif:id="Layer 1">
            <path d="M0,-440.299C-58.949,-497.899 -136.749,-529.244 -219.21,-528.141C-338.824,-526.76 -447.892,-455.373 -497.074,-346.276C-499.271,-341.403 -499.231,-336.097 -497.409,-331.491C-497.4,-331.469 -497.39,-331.446 -497.38,-331.424C-496.918,-330.268 -496.342,-329.161 -495.661,-328.113C-495.648,-328.094 -495.642,-328.073 -495.629,-328.054L-317.905,-56.515C-316.396,-53.924 -314.258,-51.649 -311.534,-49.954C-311.255,-49.78 -310.96,-49.658 -310.675,-49.501C-310.467,-49.386 -310.258,-49.276 -310.046,-49.169C-309.506,-48.896 -308.963,-48.645 -308.409,-48.428C-308.26,-48.369 -308.108,-48.32 -307.958,-48.266C-307.333,-48.039 -306.708,-47.833 -306.072,-47.675C-306.039,-47.667 -306.005,-47.662 -305.973,-47.654C-304.502,-47.299 -303.013,-47.089 -301.527,-47.089C-300.628,-47.089 -299.734,-47.17 -298.848,-47.296C-298.754,-47.309 -298.661,-47.334 -298.566,-47.349C-297.824,-47.466 -297.09,-47.623 -296.366,-47.826C-296.149,-47.888 -295.936,-47.965 -295.72,-48.033C-295.101,-48.233 -294.492,-48.457 -293.894,-48.719C-293.671,-48.817 -293.452,-48.92 -293.231,-49.027C-292.621,-49.322 -292.029,-49.653 -291.45,-50.014C-291.333,-50.088 -291.208,-50.137 -291.091,-50.213C-291.036,-50.249 -290.997,-50.297 -290.943,-50.333C-289.992,-50.97 -289.092,-51.689 -288.257,-52.504C-288.101,-52.656 -287.966,-52.82 -287.815,-52.976C-287.202,-53.618 -286.632,-54.31 -286.102,-55.05C-285.924,-55.298 -285.737,-55.535 -285.572,-55.789C-285.514,-55.881 -285.442,-55.959 -285.385,-56.052L-213.964,-170.903L-140.985,-59.465C-140.802,-59.185 -140.586,-58.94 -140.391,-58.672C-140.157,-58.353 -139.931,-58.028 -139.681,-57.727C-139.404,-57.394 -139.105,-57.089 -138.811,-56.779C-138.544,-56.5 -138.286,-56.213 -138.006,-55.952C-137.686,-55.654 -137.346,-55.39 -137.008,-55.117C-136.723,-54.887 -136.446,-54.646 -136.149,-54.434C-135.783,-54.172 -135.398,-53.945 -135.017,-53.712C-134.724,-53.532 -134.44,-53.339 -134.14,-53.177C-133.726,-52.953 -133.296,-52.769 -132.868,-52.578C-132.577,-52.447 -132.295,-52.299 -131.998,-52.184C-131.54,-52.005 -131.068,-51.871 -130.599,-51.729C-130.316,-51.644 -130.04,-51.537 -129.754,-51.465C-129.233,-51.333 -128.702,-51.249 -128.171,-51.162C-127.926,-51.122 -127.687,-51.059 -127.44,-51.028C-126.66,-50.931 -125.873,-50.879 -125.084,-50.879C-124.22,-50.879 -123.353,-50.943 -122.489,-51.063C-122.188,-51.105 -121.891,-51.19 -121.589,-51.246C-121.031,-51.351 -120.474,-51.45 -119.922,-51.608C-119.562,-51.71 -119.211,-51.858 -118.854,-51.983C-118.37,-52.153 -117.886,-52.313 -117.412,-52.524C-117.047,-52.686 -116.696,-52.89 -116.338,-53.076C-115.98,-53.264 -115.614,-53.418 -115.265,-53.63C-56.766,-89.075 -20.919,-153.535 -21.712,-221.854C-22.31,-273.655 -43.045,-322.123 -80.097,-358.329C-117.148,-394.535 -165.912,-414.07 -217.884,-413.544C-277.41,-412.858 -332.488,-385.45 -369,-338.352C-375.421,-330.064 -373.913,-318.137 -365.625,-311.713C-357.337,-305.291 -345.413,-306.799 -338.986,-315.087C-309.618,-352.976 -265.316,-375.023 -217.443,-375.577C-175.865,-375.962 -136.432,-360.288 -106.636,-331.169C-76.836,-302.053 -60.161,-263.073 -59.679,-221.414C-59.115,-172.612 -81.838,-126.297 -119.89,-96.56L-197.953,-215.761C-197.975,-215.799 -198.003,-215.831 -198.024,-215.868C-198.385,-216.48 -198.787,-217.068 -199.218,-217.639C-199.296,-217.742 -199.376,-217.842 -199.456,-217.944C-199.882,-218.485 -200.338,-219.005 -200.826,-219.503C-200.876,-219.553 -200.922,-219.605 -200.972,-219.654C-201.973,-220.651 -203.087,-221.561 -204.338,-222.339C-204.461,-222.415 -204.59,-222.474 -204.714,-222.547C-204.771,-222.58 -204.829,-222.61 -204.885,-222.642C-205.534,-223.017 -206.195,-223.346 -206.867,-223.636C-206.926,-223.662 -206.985,-223.688 -207.044,-223.713C-215.49,-227.258 -225.496,-224.273 -230.487,-216.24L-301.902,-101.399L-458.043,-339.961C-413.037,-430.383 -320.232,-489.002 -218.769,-490.174C-146.533,-491.022 -78.23,-463.651 -26.536,-413.139C25.155,-362.629 54.084,-295.009 54.921,-222.739C55.755,-150.469 28.397,-82.199 -22.115,-30.507C-72.625,21.185 -140.244,50.114 -212.514,50.95C-213.56,50.962 -214.591,50.967 -215.636,50.967C-354.737,50.967 -472.82,-56.652 -485.145,-195.343C-486.072,-205.786 -495.28,-213.494 -505.737,-212.574C-516.182,-211.645 -523.896,-202.425 -522.968,-191.983C-508.909,-33.793 -374.268,88.945 -215.633,88.938C-214.454,88.938 -213.258,88.931 -212.073,88.918C-129.664,87.968 -52.557,54.978 5.046,-3.97C62.646,-62.916 93.843,-140.768 92.888,-223.18C91.938,-305.59 58.948,-382.697 0,-440.299" style="fill:rgb(255, 127, 101);fill-rule:nonzero;"/>
        </g>
    </g>
</svg>
