<?xml version="1.0" encoding="UTF-8"?>
<svg id="Layer_1" data-name="Layer 1" xmlns="http://www.w3.org/2000/svg" viewBox="0 0 853.3 934.53">
  <defs>
    <style>
      .cls-1 {
        fill: #422e30;
      }

      .cls-1, .cls-2 {
        stroke-width: 0px;
      }

      .cls-2 {
        fill: #f86e29;
      }
    </style>
  </defs>
  <path class="cls-1" d="M620.37,199.73C608.04,93.26,462.3-.76,310.66.78l-154.94-.78H46.43C20.79,0,0,20.77,0,46.4v840.84c0,25.69,20.84,46.52,46.55,46.52l108.39.78h311.45c86,0,155.72-69.68,155.72-155.63h-156.31s-94.4,0-94.4,0h-63.95c-83.79,0-151.72-67.89-151.72-151.63v-320.03c0-83.74,67.93-151.63,151.72-151.63h0c68.24,0,126.42,37.75,148.95,95.76-1.62-5.91-2.64-12.07-2.94-18.42-.07-1.39-.11-2.79-.11-4.2,0-.07,0-.13,0-.19,0,1.35.04,2.69.1,4.03.31,6.38,1.33,12.56,2.96,18.5.99,3.62,2.2,7.14,3.63,10.56,5.83,13.88,15.2,25.9,26.98,34.95,14.49,11.13,32.62,17.76,52.3,17.76,22.33,0,42.65-8.52,57.93-22.47,12.86-11.74,20.29-26.04,24.16-43.67.82-3.73-.64-47.32-1.06-48.5Z"/>
  <path class="cls-2" d="M775.49,233.83h0c-42.97,0-77.81,34.84-77.81,77.81v195.31c0,21.06-17.07,38.13-38.13,38.13h-9.34c-21.06,0-38.13-17.07-38.13-38.13v-41.26c0-42.1-34.13-76.24-76.24-76.24h-3.15c-42.1,0-76.24,34.13-76.24,76.24v41.26c0,21.06-17.07,38.13-38.13,38.13h0c-21.06,0-38.13-17.07-38.13-38.13v-195.31c0-42.97-34.84-77.81-77.81-77.81h0c-42.97,0-77.81,34.84-77.81,77.81v311.25c0,39.28,29.1,71.74,66.92,77.04v.77h484c42.97,0,77.81-34.84,77.81-77.81v-311.25c0-42.97-34.84-77.81-77.81-77.81Z"/>
</svg>